<svg xmlns="http://www.w3.org/2000/svg" width="234" height="88" viewBox="0 0 234 88">
    <text id="I" transform="translate(0 69)" fill="#0e0000" font-size="72" font-family="Calibri-Bold, Calibri" font-weight="700" letter-spacing="0.049em"><tspan x="0" y="0">I</tspan></text>
    <text id="N" transform="translate(107 69)" fill="#0e0000" font-size="72" font-family="Calibri-Bold, Calibri" font-weight="700" letter-spacing="0.049em"><tspan x="0" y="0">N</tspan></text>
    <text id="B" transform="translate(151 69)" font-size="72" font-family="Calibri-Bold, Calibri" font-weight="700" letter-spacing="0.049em"><tspan x="0" y="0">B</tspan></text>
    <text id="G" transform="translate(188 69)" fill="#0e0000" font-size="72" font-family="Calibri-Bold, Calibri" font-weight="700" letter-spacing="0.049em"><tspan x="0" y="0">G</tspan></text>
    <path id="_367960" d="M94.566,64a19,19,0,0,0-14.452,6.778A19,19,0,0,0,65.663,64,17.462,17.462,0,0,0,48,81.771c0,12.275,10.916,22.125,27.452,37.318l4.663,4.2,4.663-4.2c16.536-15.193,27.452-25.043,27.452-37.318A17.462,17.462,0,0,0,94.566,64Z" transform="translate(-17.358 -45.525)" fill="#8b0000"></path>
    <path id="_367960-2"  d="M82.677,64a14.147,14.147,0,0,0-10.762,5.047A14.147,14.147,0,0,0,61.153,64,13,13,0,0,0,48,77.234c0,9.141,8.129,16.476,20.443,27.79l3.472,3.127,3.472-3.127C87.7,93.71,95.83,86.375,95.83,77.234A13,13,0,0,0,82.677,64Z" transform="translate(2.04 -30.5)" fill="#bf5e5e" stroke="#fff" stroke-width="4"></path>
</svg>