<svg xmlns="http://www.w3.org/2000/svg" viewBox="0 0 412.73 370.54"><defs><style>.cls-1{fill:#f79a0f;}.cls-2{fill:#a21c13;}.cls-3{fill:#175079;}</style></defs><title>symbol</title><g id="Layer_2" data-name="Layer 2"><g id="Layer_1-2" data-name="Layer 1"><polygon class="cls-1" points="375.25 67.49 348.94 23.94 187.81 227.62 26.3 23.57 0 67.12 155.87 264.63 155.79 264.72 187.74 301.74 187.81 301.65 187.89 301.74 219.83 264.72 219.75 264.63 375.25 67.49"></polygon><path class="cls-1" d="M219.13,31.66a31.66,31.66,0,1,0-31.67,31.67A31.67,31.67,0,0,0,219.13,31.66Z"></path><polygon class="cls-2" points="315.69 328.85 106.45 328.85 72.96 370.2 412.73 369.89 273.52 196.46 242.45 235.86 315.69 328.85"></polygon><polygon class="cls-2" points="219.75 129.47 219.83 129.38 187.89 92.37 187.81 92.46 187.74 92.37 155.79 129.38 155.87 129.47 0 326.99 26.3 370.54 187.81 166.49 211.94 197.12 242.77 158.15 219.75 129.47"></polygon><polygon class="cls-2" points="315.69 328.85 106.45 328.85 72.96 370.2 412.73 369.89 273.52 196.46 242.45 235.86 315.69 328.85"></polygon><polygon class="cls-2" points="219.75 129.47 219.83 129.38 187.89 92.37 187.81 92.46 187.74 92.37 155.79 129.38 155.87 129.47 0 326.99 26.3 370.54 187.81 166.49 211.94 197.12 242.77 158.15 219.75 129.47"></polygon><polygon class="cls-3" points="315.69 328.85 106.45 328.85 72.96 370.2 412.73 369.89 273.52 196.46 242.45 235.86 315.69 328.85"></polygon><polygon class="cls-3" points="219.75 129.47 219.83 129.38 187.89 92.37 187.81 92.46 187.74 92.37 155.79 129.38 155.87 129.47 0 326.99 26.3 370.54 187.81 166.49 211.94 197.12 242.77 158.15 219.75 129.47"></polygon><polygon class="cls-2" points="315.69 328.85 106.45 328.85 72.96 370.2 412.73 369.89 273.52 196.46 242.45 235.86 315.69 328.85"></polygon><polygon class="cls-2" points="219.75 129.47 219.83 129.38 187.89 92.37 187.81 92.46 187.74 92.37 155.79 129.38 155.87 129.47 0 326.99 26.3 370.54 187.81 166.49 211.94 197.12 242.77 158.15 219.75 129.47"></polygon></g></g></svg>